<?xml version="1.0" encoding="UTF-8" standalone="no"?>
<svg
   xmlns:dc="http://purl.org/dc/elements/1.1/"
   xmlns:cc="http://creativecommons.org/ns#"
   xmlns:rdf="http://www.w3.org/1999/02/22-rdf-syntax-ns#"
   xmlns:svg="http://www.w3.org/2000/svg"
   xmlns="http://www.w3.org/2000/svg"
   xmlns:sodipodi="http://sodipodi.sourceforge.net/DTD/sodipodi-0.dtd"
   xmlns:inkscape="http://www.inkscape.org/namespaces/inkscape"
   width="264"
   height="88"
   viewBox="0 0 264 88"
   version="1.1"
   id="svg39"
   sodipodi:docname="play-skin.svg"
   inkscape:version="0.92.3 (2405546, 2018-03-11)"
   inkscape:export-filename="C:\Users\evans\Documents\Web Pages\Image Galleries\gallery-playbutton\play-skin\play-skin.png"
   inkscape:export-xdpi="96"
   inkscape:export-ydpi="96">
  <metadata
     id="metadata45">
    <rdf:RDF>
      <cc:Work
         rdf:about="">
        <dc:format>image/svg+xml</dc:format>
        <dc:type
           rdf:resource="http://purl.org/dc/dcmitype/StillImage" />
        <dc:title>play-skin</dc:title>
      </cc:Work>
    </rdf:RDF>
  </metadata>
  <defs
     id="defs43" />
  <sodipodi:namedview
     pagecolor="#ffffff"
     bordercolor="#666666"
     borderopacity="1"
     objecttolerance="10"
     gridtolerance="10"
     guidetolerance="10"
     inkscape:pageopacity="0"
     inkscape:pageshadow="2"
     inkscape:window-width="1536"
     inkscape:window-height="801"
     id="namedview41"
     showgrid="false"
     inkscape:pagecheckerboard="true"
     showguides="true"
     inkscape:guide-bbox="true"
     inkscape:zoom="3.3105454"
     inkscape:cx="137.45778"
     inkscape:cy="35.456311"
     inkscape:window-x="1912"
     inkscape:window-y="-8"
     inkscape:window-maximized="1"
     inkscape:current-layer="g35">
    <sodipodi:guide
       position="201.99341,66"
       orientation="0,1"
       id="guide4634"
       inkscape:locked="false"
       inkscape:label=""
       inkscape:color="rgb(0,0,255)" />
    <sodipodi:guide
       position="-10.679612,21"
       orientation="0,1"
       id="guide4636"
       inkscape:locked="false"
       inkscape:label=""
       inkscape:color="rgb(0,0,255)" />
    <sodipodi:guide
       position="198,66.427185"
       orientation="1,0"
       id="guide4638"
       inkscape:locked="false"
       inkscape:label=""
       inkscape:color="rgb(0,0,255)" />
    <sodipodi:guide
       position="154,139.68932"
       orientation="1,0"
       id="guide4640"
       inkscape:locked="false"
       inkscape:label=""
       inkscape:color="rgb(0,0,255)" />
    <sodipodi:guide
       position="22,134.34951"
       orientation="1,0"
       id="guide4642"
       inkscape:locked="false"
       inkscape:label=""
       inkscape:color="rgb(0,0,255)" />
    <sodipodi:guide
       position="66,123.24272"
       orientation="1,0"
       id="guide4644"
       inkscape:locked="false"
       inkscape:label=""
       inkscape:color="rgb(0,0,255)" />
    <sodipodi:guide
       position="110,139.476"
       orientation="1,0"
       id="guide4648"
       inkscape:locked="false"
       inkscape:label=""
       inkscape:color="rgb(0,0,255)" />
    <sodipodi:guide
       position="137.76699,77"
       orientation="0,1"
       id="guide852"
       inkscape:locked="false"
       inkscape:label=""
       inkscape:color="rgb(0,0,255)" />
    <sodipodi:guide
       position="80.097087,33"
       orientation="0,1"
       id="guide854"
       inkscape:locked="false"
       inkscape:label=""
       inkscape:color="rgb(0,0,255)" />
    <sodipodi:guide
       position="99.747572,40.368932"
       orientation="1,0"
       id="guide856"
       inkscape:locked="false" />
    <sodipodi:guide
       position="187,16.019417"
       orientation="1,0"
       id="guide858"
       inkscape:locked="false"
       inkscape:label=""
       inkscape:color="rgb(0,0,255)" />
  </sodipodi:namedview>
  <title
     id="title2">play-skin</title>
  <g
     id="g37"
     style="display:inline;fill:none;fill-rule:evenodd">
    <g
       id="g35"
       style="display:inline">
      <path
         d="m 67.002,59.5 v 3.768 C 60.695,64.108 57.818,69.018 57,73 59.22,70.17 62.564,67.902 67.002,67.902 V 71.5 L 73,65.585 Z"
         id="Shape"
         inkscape:connector-curvature="0"
         style="display:inline;fill:#ffffff"
         inkscape:label="Share" />
      <g
         id="g4618"
         transform="matrix(0.044,0,0,0.04399894,187,11.000266)"
         inkscape:label="Play"
         inkscape:transform-center-x="1.0679612">
        <g
           id="g6">
          <path
             id="path2-1"
             d="m 250,-0.006 c -138.074,0 -250,111.938 -250,250.012 0,138.062 111.926,250 250,250 138.062,0 250,-111.938 250,-250 C 500,111.932 388.062,-0.006 250,-0.006 Z m 0,469.377 C 129.039,469.371 30.635,370.967 30.635,250.006 30.635,129.045 129.039,30.629 250,30.629 c 120.955,0 219.365,98.416 219.365,219.377 0,120.961 -98.41,219.365 -219.365,219.365 z"
             inkscape:connector-curvature="0"
             style="fill:#010101" />
          <polygon
             id="polygon4"
             points="173.005,150.059 173.005,250.006 173.005,349.953 361.28,250.006 "
             style="fill:#010101" />
        </g>
        <path
           inkscape:connector-curvature="0"
           id="path15-7"
           d="m 174.15254,250.32172 c 0,-62.3047 0.74585,-97.45283 2.0584,-97.00251 8.4749,2.90765 181.60247,96.34507 180.49866,97.41561 -1.03119,1.00012 -137.17461,73.589 -178.84943,95.35885 -3.50548,1.83117 -3.70763,-3.39064 -3.70763,-95.77195 z"
           style="fill:#ffffff;stroke-width:1" />
        <path
           inkscape:connector-curvature="0"
           id="path17-8"
           d="M 205.20185,494.92203 C 106.11844,477.02038 27.291142,399.28013 5.6207706,298.09322 1.1159235,277.05843 0.52039831,230.29953 4.4739835,208.05085 33.367129,45.455449 209.52932,-45.58261 357.3218,25.704237 494.3597,91.803686 540.2579,260.39434 456.27015,389.15566 c -19.75468,30.28582 -60.29621,65.91309 -94.65687,83.18301 -45.86631,23.05273 -105.86538,31.71565 -156.41143,22.58336 z m 70.70118,-26.36457 C 336.81636,461.07513 390.1875,430.06271 426.755,380.90178 475.28915,315.65301 483.65053,229.7436 448.65678,155.87104 436.68833,130.60541 424.83453,113.8639 404.79419,93.922487 365.57231,54.89421 316.24587,33.233883 260.73858,30.664494 205.1926,28.093311 155.01545,44.245977 112.53033,78.374623 74.93096,108.57851 49.310174,148.20847 36.102555,196.59231 29.279559,221.58718 29.196987,275.55142 35.941178,302.06468 63.562339,410.65119 166.40647,482.00754 275.90303,468.55746 Z"
           style="fill:#ffffff;stroke-width:1" />
      </g>
      <g
         id="g4593"
         transform="matrix(0.044,0,0,0.04399894,187,55.000266)"
         style="display:inline"
         inkscape:label="Pause">
        <g
           id="g8">
          <path
             id="path2"
             d="m 250,-0.006 c -138.068,0 -250,111.938 -250,250.012 0,138.062 111.932,250 250,250 138.067,0 250,-111.938 250,-250 C 500,111.932 388.067,-0.006 250,-0.006 Z m 0,469.377 c -120.955,0 -219.365,-98.404 -219.365,-219.365 0,-120.961 98.41,-219.377 219.365,-219.377 120.955,0 219.365,98.416 219.365,219.377 0,120.961 -98.41,219.365 -219.365,219.365 z"
             inkscape:connector-curvature="0"
             style="fill:#010101" />
          <rect
             id="rect4"
             height="199.895"
             width="44.403"
             y="150.05901"
             x="171.922"
             style="fill:#010101" />
          <rect
             id="rect6"
             height="199.895"
             width="44.403"
             y="150.05901"
             x="283.66901"
             style="fill:#010101" />
        </g>
        <path
           inkscape:connector-curvature="0"
           id="path17-6"
           d="M 205.20185,494.92203 C 106.11844,477.02038 27.291142,399.28013 5.6207706,298.09322 1.1159235,277.05843 0.52039831,230.29953 4.4739835,208.05085 33.367129,45.455449 209.52932,-45.58261 357.3218,25.704237 494.3597,91.803686 540.2579,260.39434 456.27015,389.15566 c -19.75468,30.28582 -60.29621,65.91309 -94.65687,83.18301 -45.86631,23.05273 -105.86538,31.71565 -156.41143,22.58336 z m 70.70118,-26.36457 C 336.81636,461.07513 390.1875,430.06271 426.755,380.90178 475.28915,315.65301 483.65053,229.7436 448.65678,155.87104 436.68833,130.60541 424.83453,113.8639 404.79419,93.922487 365.57231,54.89421 316.24587,33.233883 260.73858,30.664494 205.1926,28.093311 155.01545,44.245977 112.53033,78.374623 74.93096,108.57851 49.310174,148.20847 36.102555,196.59231 29.279559,221.58718 29.196987,275.55142 35.941178,302.06468 63.562339,410.65119 166.40647,482.00754 275.90303,468.55746 Z"
           style="fill:#ffffff;stroke-width:1" />
        <path
           inkscape:connector-curvature="0"
           id="path19"
           d="m 172.0339,250.42373 v -99.57627 h 21.18644 21.18644 V 250.42373 350 H 193.22034 172.0339 Z"
           style="fill:#ffffff;stroke-width:1" />
        <path
           inkscape:connector-curvature="0"
           id="path21-5"
           d="m 284.32203,250.42373 v -99.57627 h 21.18644 21.18645 V 250.42373 350 h -21.18645 -21.18644 z"
           style="fill:#ffffff;stroke-width:1" />
      </g>
      <g
         id="g7"
         style="fill:#ffffff"
         inkscape:label="Full Screen">
        <path
           d="m 13,29 v -5 h 2 v 3 h 3 v 2 z m 0,-14 h 5 v 2 h -3 v 3 h -2 z m 18,0 v 5 h -2 v -3 h -3 v -2 z m 0,14 h -5 v -2 h 3 v -3 h 2 z"
           id="path5"
           inkscape:connector-curvature="0" />
      </g>
      <g
         id="g11"
         style="fill:#ffffff"
         inkscape:label="Resture">
        <path
           d="m 62,24 v 5 h -2 v -3 h -3 v -2 z m 0,-4 h -5 v -2 h 3 v -3 h 2 z m 8,0 v -5 h 2 v 3 h 3 v 2 z m 0,4 h 5 v 2 h -3 v 3 h -2 z"
           id="path9"
           inkscape:connector-curvature="0" />
      </g>
      <path
         d="M 20.586,66 14.93,60.344 16.344,58.93 22,64.586 27.656,58.93 29.07,60.344 23.414,66 29.07,71.656 27.656,73.07 22,67.414 16.344,73.07 14.93,71.656 Z"
         id="path13"
         inkscape:connector-curvature="0"
         style="fill:#ffffff"
         inkscape:label="Close" />
      <path
         d="M 111.785,65.03 110,63.5 113,60 h -10 v -2 h 10 l -3,-3.5 1.785,-1.468 L 117,59 Z"
         id="path15"
         inkscape:connector-curvature="0"
         style="fill:#ffffff"
         inkscape:label="Forward Arrow" />
      <path
         d="M 152.215,65.03 154,63.5 151,60 h 10 v -2 h -10 l 3,-3.5 -1.785,-1.468 L 147,59 Z"
         id="path17"
         inkscape:connector-curvature="0"
         style="display:inline;fill:#ffffff"
         inkscape:label="Back Arrow" />
      <g
         id="g23"
         inkscape:label="Zoom-">
        <path
           id="Rectangle-11"
           d="m 160.957,28.543 -3.25,-3.25 -1.413,1.414 3.25,3.25 z"
           inkscape:connector-curvature="0"
           style="fill:#ffffff" />
        <path
           d="m 152.5,27 c 3.038,0 5.5,-2.462 5.5,-5.5 0,-3.038 -2.462,-5.5 -5.5,-5.5 -3.038,0 -5.5,2.462 -5.5,5.5 0,3.038 2.462,5.5 5.5,5.5 z"
           id="Oval-1"
           inkscape:connector-curvature="0"
           style="stroke:#ffffff;stroke-width:1.5" />
        <path
           d="m 150,21 h 5 v 1 h -5 z"
           id="path21"
           inkscape:connector-curvature="0"
           style="fill:#ffffff" />
      </g>
      <g
         id="g33"
         style="display:inline"
         inkscape:label="Zoom+">
        <path
           d="m 116.957,28.543 -1.414,1.414 -3.25,-3.25 1.414,-1.414 z"
           id="path25"
           inkscape:connector-curvature="0"
           style="fill:#ffffff" />
        <path
           d="m 108.5,27 c 3.038,0 5.5,-2.462 5.5,-5.5 0,-3.038 -2.462,-5.5 -5.5,-5.5 -3.038,0 -5.5,2.462 -5.5,5.5 0,3.038 2.462,5.5 5.5,5.5 z"
           id="path27"
           inkscape:connector-curvature="0"
           style="stroke:#ffffff;stroke-width:1.5" />
        <path
           d="m 106,21 h 5 v 1 h -5 z"
           id="path29"
           inkscape:connector-curvature="0"
           style="fill:#ffffff" />
        <path
           d="m 109.043,19.008 -0.085,5 -1,-0.017 0.085,-5 z"
           id="path31"
           inkscape:connector-curvature="0"
           style="fill:#ffffff" />
      </g>
    </g>
  </g>
</svg>
